<svg version="1.2" xmlns="http://www.w3.org/2000/svg" viewBox="0 0 443 213" width="443" height="213">
	<title>New Project</title>
	<style>
		.s0 { fill: #286ca1 } 
		.s1 { fill: #ffd0a5 } 
	</style>
	<path id="Path 0" class="s0" d="m214.3 10.8c-0.4 0.5-5.1 1.2-10.3 1.5-8.2 0.6-10.5 1.2-17 4.3-4.1 2-8.9 3.8-10.5 4-1.6 0.2-7.5 2.6-13 5.4-5.5 2.8-13.8 7.1-18.5 9.6-4.7 2.4-12.2 7.2-16.6 10.7-4.5 3.4-12.6 9.8-18 14.2-5.9 4.8-11.9 8.8-14.9 9.9-2.8 1-6.1 2.3-7.5 2.8-1.4 0.6-3.6 1.6-4.9 2.2-1.3 0.6-7.1 1.1-13 1-5.8-0.1-15.1-0.5-20.6-0.9-5.5-0.4-12.1-0.5-14.8-0.1-4 0.5-5.5 1.4-10.2 6.1-3 3-6.5 7.4-7.6 9.8-1.2 2.3-2.8 6.6-3.5 9.5-0.8 2.8-1.4 6.1-1.4 7.2 0 1.1-0.4 2-1 2-0.6 0-1 3.3-1 7.8 0 4.2 0.6 10.6 1.3 14.2 0.8 3.6 2.8 9.4 4.5 13 1.7 3.6 5.1 8.5 7.6 11 2.8 2.8 8.4 6.4 14.8 9.6 5.7 2.9 12.5 6.1 15.3 7.3 2.7 1.1 7 2.6 9.5 3.1 2.5 0.6 8.8 2 14 3.2 5.2 1.1 10.4 2.6 11.5 3.4 1.3 0.8 3.1 1 5.1 0.6 1.9-0.4 3.7-0.3 4.5 0.4 0.8 0.6 3.6 1.4 6.4 1.7 2.7 0.4 7 1.4 9.5 2.2 2.5 0.8 6.7 1.9 9.4 2.3 2.6 0.4 5 1 5.2 1.5 0.2 0.4 1.6 0.7 3.1 0.7 1.6 0 4.2 0.4 5.8 0.9 1.6 0.6 5.2 1.5 8 2.1 2.7 0.6 7.9 1.8 11.5 2.6 3.6 0.8 10.1 2.1 14.5 2.9 4.4 0.7 13.4 1.9 20 2.5 6.6 0.6 18.1 1.1 25.5 1.1 7.4-0.1 18.2-0.4 24-0.6 5.8-0.3 11.9-0.9 13.5-1.4 1.6-0.5 5.9-1.3 9.5-1.7 3.6-0.4 7.9-1.1 9.5-1.6 1.6-0.5 5.7-1.4 9-1.8 3.3-0.5 12.1-2.1 19.5-3.5 7.4-1.5 16-3 19-3.5 3-0.5 8.4-1.5 12-2.4 3.6-0.8 7.6-1.8 9-2.1 1.4-0.4 3.4-1 4.5-1.5 1.1-0.4 5.4-1.8 9.5-3.1 4.1-1.3 10.2-3.5 13.5-5 3.3-1.5 7.6-3.4 9.5-4.2 1.9-0.9 5.5-2.2 8-3.1 2.5-0.9 5.2-1.6 6-1.5 0.8 0 2.2-0.7 3-1.6 0.8-0.9 2.3-1.6 3.2-1.5 1 0 3.7-0.9 6-2 2.4-1.1 8.6-6.1 13.8-11.2 9-8.8 9.6-9.7 11.9-16.8 1.3-4.1 2.6-11.1 2.9-15.5 0.3-4.9 0-10.1-0.8-13.5-0.7-3-2.6-8.2-4.1-11.5-1.6-3.3-4.8-7.9-7.1-10.3-3.9-3.9-4.9-4.3-11.3-5.2-3.9-0.5-9.9-1.3-13.5-1.9-3.6-0.5-11-1.3-16.5-1.7-5.5-0.3-13.6-1.5-18-2.6-4.4-1.1-10.3-3.3-13-4.8-2.8-1.5-6.6-3.6-8.5-4.6-1.9-1.1-3.6-2.2-3.8-2.6-0.1-0.5-0.7-0.8-1.2-0.8-0.5 0-2.2-0.9-3.8-2.1-1.5-1.1-6-5.2-10-9-3.9-3.8-7.3-7.7-7.5-8.6-0.1-0.9-3.8-4.3-8.2-7.5-4.4-3.2-9.1-6.3-10.5-6.9-1.4-0.6-3.6-1.6-5-2.3-1.4-0.7-4.1-1.6-6-2.1-1.9-0.4-4.4-1.4-5.5-2.1-1.1-0.8-3.5-1.4-5.3-1.4-1.7 0-5.3-0.5-8-1.1-2.6-0.6-5.6-1.5-6.7-2.1-1.1-0.6-6.5-1.7-12-2.4-5.5-0.7-15-1.4-21.2-1.4-6.2 0-11.6 0.4-12 0.8z"/>
	<path id="Path 0" class="s1" d="m210.5 31c-6.1 0.4-13.5 1.5-16.5 2.5-3 1-8.2 3.1-11.5 4.8-3.7 1.8-8.9 5.9-13.7 10.6-6.7 6.6-8.3 9.1-13.1 19.1-3 6.3-6.1 14-7 17-0.9 3-2.4 8.6-3.4 12.5-1.2 4.6-1.8 10.6-1.8 17.5 0 7.6 0.6 12 1.9 16 1 3 3.1 8 4.6 11 1.6 3 4.1 7.2 5.6 9.2 1.6 2 4 5.6 5.4 7.9 1.4 2.2 5.5 7 9.3 10.5 3.7 3.5 9.1 7.6 11.9 9 2.9 1.5 7.1 3.3 9.3 4.1 2.2 0.8 9.2 2.3 15.5 3.4 6.3 1 16.2 1.9 22 1.9 5.9 0 15.3-0.9 21.5-1.9 6-1.1 12.8-2.6 15-3.4 2.2-0.8 6.5-2.7 9.5-4.2 3.2-1.6 8.7-6 13.1-10.4 4.4-4.4 8.8-9.9 10.4-13.1 1.5-3 3.8-8.4 5.1-12 1.3-3.6 3.5-9.6 4.9-13.5 1.7-4.4 2.8-10 3.2-15 0.3-4.4 0-10.5-0.6-13.5-0.6-3-1.7-8.9-2.5-13-0.8-4.1-2.1-9.3-2.9-11.5-0.8-2.2-2.7-6.5-4.2-9.5-1.6-3.2-6-8.7-10.4-13.1-4.7-4.7-9.9-8.8-13.6-10.6-3.3-1.7-10.7-4.7-16.5-6.7-5.8-2-14.3-4.3-19-5.1-4.7-0.8-11.2-1.4-14.5-1.3-3.3 0-10.9 0.4-17 0.8z"/>
</svg>